<?xml version="1.0" encoding="UTF-8" standalone="no"?>
<!-- Created with Inkscape (http://www.inkscape.org/) -->

<svg
   xmlns:dc="http://purl.org/dc/elements/1.1/"
   xmlns:cc="http://creativecommons.org/ns#"
   xmlns:rdf="http://www.w3.org/1999/02/22-rdf-syntax-ns#"
   xmlns:svg="http://www.w3.org/2000/svg"
   xmlns="http://www.w3.org/2000/svg"
   version="1.2"
   width="239"
   height="225"
   id="svg2">
  <metadata
     id="metadata302">
    <rdf:RDF>
      <cc:Work
         rdf:about="">
        <dc:format>image/svg+xml</dc:format>
        <dc:type
           rdf:resource="http://purl.org/dc/dcmitype/StillImage" />
        <dc:title></dc:title>
      </cc:Work>
    </rdf:RDF>
  </metadata>
  <defs
     id="defs300" />
  <line
     x1="0.5"
     y1="0.5"
     x2="0.5"
     y2="224.5"
     id="line4"
     style="stroke:#0000ff;stroke-width:1" />
  <line
     x1="14.5"
     y1="0.5"
     x2="14.5"
     y2="224.5"
     id="line6"
     style="stroke:#0000ff;stroke-width:1" />
  <line
     x1="28.5"
     y1="0.5"
     x2="28.5"
     y2="224.5"
     id="line8"
     style="stroke:#0000ff;stroke-width:1" />
  <line
     x1="42.5"
     y1="0.5"
     x2="42.5"
     y2="224.5"
     id="line10"
     style="stroke:#0000ff;stroke-width:1" />
  <line
     x1="56.5"
     y1="0.5"
     x2="56.5"
     y2="224.5"
     id="line12"
     style="stroke:#0000ff;stroke-width:1" />
  <line
     x1="70.5"
     y1="0.5"
     x2="70.5"
     y2="224.5"
     id="line14"
     style="stroke:#0000ff;stroke-width:1" />
  <line
     x1="84.5"
     y1="0.5"
     x2="84.5"
     y2="224.5"
     id="line16"
     style="stroke:#0000ff;stroke-width:1" />
  <line
     x1="98.5"
     y1="0.5"
     x2="98.5"
     y2="224.5"
     id="line18"
     style="stroke:#0000ff;stroke-width:1" />
  <line
     x1="112.5"
     y1="0.5"
     x2="112.5"
     y2="224.5"
     id="line20"
     style="stroke:#0000ff;stroke-width:1" />
  <line
     x1="126.5"
     y1="0.5"
     x2="126.5"
     y2="224.5"
     id="line22"
     style="stroke:#0000ff;stroke-width:1" />
  <line
     x1="140.5"
     y1="0.5"
     x2="140.5"
     y2="224.5"
     id="line24"
     style="stroke:#0000ff;stroke-width:1" />
  <line
     x1="154.5"
     y1="0.5"
     x2="154.5"
     y2="224.5"
     id="line26"
     style="stroke:#0000ff;stroke-width:1" />
  <line
     x1="168.5"
     y1="0.5"
     x2="168.5"
     y2="224.5"
     id="line28"
     style="stroke:#0000ff;stroke-width:1" />
  <line
     x1="182.5"
     y1="0.5"
     x2="182.5"
     y2="224.5"
     id="line30"
     style="stroke:#0000ff;stroke-width:1" />
  <line
     x1="196.5"
     y1="0.5"
     x2="196.5"
     y2="224.5"
     id="line32"
     style="stroke:#0000ff;stroke-width:1" />
  <line
     x1="210.5"
     y1="0.5"
     x2="210.5"
     y2="224.5"
     id="line34"
     style="stroke:#0000ff;stroke-width:1" />
  <line
     x1="224.5"
     y1="0.5"
     x2="224.5"
     y2="224.5"
     id="line36"
     style="stroke:#0000ff;stroke-width:1" />
  <line
     x1="238.5"
     y1="0.5"
     x2="238.5"
     y2="224.5"
     id="line38"
     style="stroke:#0000ff;stroke-width:1" />
  <line
     x1="0.5"
     y1="0.5"
     x2="238.5"
     y2="0.5"
     id="line40"
     style="stroke:#0000ff;stroke-width:1" />
  <line
     x1="0.5"
     y1="14.5"
     x2="238.5"
     y2="14.5"
     id="line42"
     style="stroke:#0000ff;stroke-width:1" />
  <line
     x1="0.5"
     y1="28.5"
     x2="238.5"
     y2="28.5"
     id="line44"
     style="stroke:#0000ff;stroke-width:1" />
  <line
     x1="0.5"
     y1="42.5"
     x2="238.5"
     y2="42.5"
     id="line46"
     style="stroke:#0000ff;stroke-width:1" />
  <line
     x1="0.5"
     y1="56.5"
     x2="238.5"
     y2="56.5"
     id="line48"
     style="stroke:#0000ff;stroke-width:1" />
  <line
     x1="0.5"
     y1="70.5"
     x2="238.5"
     y2="70.5"
     id="line50"
     style="stroke:#0000ff;stroke-width:1" />
  <line
     x1="0.5"
     y1="84.5"
     x2="238.5"
     y2="84.5"
     id="line52"
     style="stroke:#0000ff;stroke-width:1" />
  <line
     x1="0.5"
     y1="98.5"
     x2="238.5"
     y2="98.5"
     id="line54"
     style="stroke:#0000ff;stroke-width:1" />
  <line
     x1="0.5"
     y1="112.5"
     x2="238.5"
     y2="112.5"
     id="line56"
     style="stroke:#0000ff;stroke-width:1" />
  <line
     x1="0.5"
     y1="126.5"
     x2="238.5"
     y2="126.5"
     id="line58"
     style="stroke:#0000ff;stroke-width:1" />
  <line
     x1="0.5"
     y1="140.5"
     x2="238.5"
     y2="140.5"
     id="line60"
     style="stroke:#0000ff;stroke-width:1" />
  <line
     x1="0.5"
     y1="154.5"
     x2="238.5"
     y2="154.5"
     id="line62"
     style="stroke:#0000ff;stroke-width:1" />
  <line
     x1="0.5"
     y1="168.5"
     x2="238.5"
     y2="168.5"
     id="line64"
     style="stroke:#0000ff;stroke-width:1" />
  <line
     x1="0.5"
     y1="182.5"
     x2="238.5"
     y2="182.5"
     id="line66"
     style="stroke:#0000ff;stroke-width:1" />
  <line
     x1="0.5"
     y1="196.5"
     x2="238.5"
     y2="196.5"
     id="line68"
     style="stroke:#0000ff;stroke-width:1" />
  <line
     x1="0.5"
     y1="210.5"
     x2="238.5"
     y2="210.5"
     id="line70"
     style="stroke:#0000ff;stroke-width:1" />
  <line
     x1="0.5"
     y1="224.5"
     x2="238.5"
     y2="224.5"
     id="line72"
     style="stroke:#0000ff;stroke-width:1" />
  <circle
     cx="210"
     cy="28"
     r="5"
     transform="translate(-6.5,-20.5)"
     id="circle74"
     style="fill:#000000;fill-opacity:0.4;stroke:#000000;stroke-width:1" />
  <circle
     cx="196"
     cy="42"
     r="5"
     transform="translate(-6.5,-20.5)"
     id="circle76"
     style="fill:#000000;fill-opacity:0.4;stroke:#000000;stroke-width:1" />
  <circle
     cx="210"
     cy="42"
     r="5"
     transform="translate(-6.5,-20.5)"
     id="circle78"
     style="fill:#000000;fill-opacity:0.4;stroke:#000000;stroke-width:1" />
  <circle
     cx="224"
     cy="42"
     r="5"
     transform="translate(-6.5,-20.5)"
     id="circle80"
     style="fill:#000000;fill-opacity:0.4;stroke:#000000;stroke-width:1" />
  <circle
     cx="140"
     cy="56"
     r="5"
     transform="translate(-6.5,-20.5)"
     id="circle82"
     style="fill:#000000;fill-opacity:0.4;stroke:#000000;stroke-width:1" />
  <circle
     cx="154"
     cy="56"
     r="5"
     transform="translate(-6.5,-20.5)"
     id="circle84"
     style="fill:#000000;fill-opacity:0.4;stroke:#000000;stroke-width:1" />
  <circle
     cx="224"
     cy="56"
     r="5"
     transform="translate(-6.5,-20.5)"
     id="circle86"
     style="fill:#000000;fill-opacity:0.4;stroke:#000000;stroke-width:1" />
  <circle
     cx="28"
     cy="70"
     r="5"
     transform="translate(-6.5,-20.5)"
     id="circle88"
     style="fill:#000000;fill-opacity:0.4;stroke:#000000;stroke-width:1" />
  <circle
     cx="70"
     cy="70"
     r="5"
     transform="translate(-6.5,-20.5)"
     id="circle90"
     style="fill:#000000;fill-opacity:0.4;stroke:#000000;stroke-width:1" />
  <circle
     cx="112"
     cy="70"
     r="5"
     transform="translate(-6.5,-20.5)"
     id="circle92"
     style="fill:#000000;fill-opacity:0.4;stroke:#000000;stroke-width:1" />
  <circle
     cx="126"
     cy="70"
     r="5"
     transform="translate(-6.5,-20.5)"
     id="circle94"
     style="fill:#000000;fill-opacity:0.4;stroke:#000000;stroke-width:1" />
  <circle
     cx="224"
     cy="70"
     r="5"
     transform="translate(-6.5,-20.5)"
     id="circle96"
     style="fill:#000000;fill-opacity:0.4;stroke:#000000;stroke-width:1" />
  <circle
     cx="14"
     cy="84"
     r="5"
     transform="translate(-6.5,-20.5)"
     id="circle98"
     style="fill:#000000;fill-opacity:0.4;stroke:#000000;stroke-width:1" />
  <circle
     cx="42"
     cy="84"
     r="5"
     transform="translate(-6.5,-20.5)"
     id="circle100"
     style="fill:#000000;fill-opacity:0.4;stroke:#000000;stroke-width:1" />
  <circle
     cx="56"
     cy="84"
     r="5"
     transform="translate(-6.5,-20.5)"
     id="circle102"
     style="fill:#000000;fill-opacity:0.4;stroke:#000000;stroke-width:1" />
  <circle
     cx="70"
     cy="84"
     r="5"
     transform="translate(-6.5,-20.5)"
     id="circle104"
     style="fill:#000000;fill-opacity:0.4;stroke:#000000;stroke-width:1" />
  <circle
     cx="98"
     cy="84"
     r="5"
     transform="translate(-6.5,-20.5)"
     id="circle106"
     style="fill:#000000;fill-opacity:0.4;stroke:#000000;stroke-width:1" />
  <circle
     cx="112"
     cy="84"
     r="5"
     transform="translate(-6.5,-20.5)"
     id="circle108"
     style="fill:#000000;fill-opacity:0.4;stroke:#000000;stroke-width:1" />
  <circle
     cx="168"
     cy="84"
     r="5"
     transform="translate(-6.5,-20.5)"
     id="circle110"
     style="fill:#000000;fill-opacity:0.4;stroke:#000000;stroke-width:1" />
  <circle
     cx="182"
     cy="84"
     r="5"
     transform="translate(-6.5,-20.5)"
     id="circle112"
     style="fill:#000000;fill-opacity:0.4;stroke:#000000;stroke-width:1" />
  <circle
     cx="210"
     cy="84"
     r="5"
     transform="translate(-6.5,-20.5)"
     id="circle114"
     style="fill:#000000;fill-opacity:0.4;stroke:#000000;stroke-width:1" />
  <circle
     cx="224"
     cy="84"
     r="5"
     transform="translate(-6.5,-20.5)"
     id="circle116"
     style="fill:#000000;fill-opacity:0.4;stroke:#000000;stroke-width:1" />
  <circle
     cx="238"
     cy="84"
     r="5"
     transform="translate(-6.5,-20.5)"
     id="circle118"
     style="fill:#000000;fill-opacity:0.4;stroke:#000000;stroke-width:1" />
  <circle
     cx="14"
     cy="98"
     r="5"
     transform="translate(-6.5,-20.5)"
     id="circle120"
     style="fill:#000000;fill-opacity:0.4;stroke:#000000;stroke-width:1" />
  <circle
     cx="28"
     cy="98"
     r="5"
     transform="translate(-6.5,-20.5)"
     id="circle122"
     style="fill:#000000;fill-opacity:0.4;stroke:#000000;stroke-width:1" />
  <circle
     cx="42"
     cy="98"
     r="5"
     transform="translate(-6.5,-20.5)"
     id="circle124"
     style="fill:#000000;fill-opacity:0.4;stroke:#000000;stroke-width:1" />
  <circle
     cx="70"
     cy="98"
     r="5"
     transform="translate(-6.5,-20.5)"
     id="circle126"
     style="fill:#000000;fill-opacity:0.4;stroke:#000000;stroke-width:1" />
  <circle
     cx="126"
     cy="98"
     r="5"
     transform="translate(-6.5,-20.5)"
     id="circle128"
     style="fill:#000000;fill-opacity:0.4;stroke:#000000;stroke-width:1" />
  <circle
     cx="154"
     cy="98"
     r="5"
     transform="translate(-6.5,-20.5)"
     id="circle130"
     style="fill:#000000;fill-opacity:0.4;stroke:#000000;stroke-width:1" />
  <circle
     cx="182"
     cy="98"
     r="5"
     transform="translate(-6.5,-20.5)"
     id="circle132"
     style="fill:#000000;fill-opacity:0.4;stroke:#000000;stroke-width:1" />
  <circle
     cx="238"
     cy="98"
     r="5"
     transform="translate(-6.5,-20.5)"
     id="circle134"
     style="fill:#000000;fill-opacity:0.4;stroke:#000000;stroke-width:1" />
  <circle
     cx="14"
     cy="112"
     r="5"
     transform="translate(-6.5,-20.5)"
     id="circle136"
     style="fill:#000000;fill-opacity:0.4;stroke:#000000;stroke-width:1" />
  <circle
     cx="112"
     cy="112"
     r="5"
     transform="translate(-6.5,-20.5)"
     id="circle138"
     style="fill:#000000;fill-opacity:0.4;stroke:#000000;stroke-width:1" />
  <circle
     cx="140"
     cy="112"
     r="5"
     transform="translate(-6.5,-20.5)"
     id="circle140"
     style="fill:#000000;fill-opacity:0.4;stroke:#000000;stroke-width:1" />
  <circle
     cx="224"
     cy="112"
     r="5"
     transform="translate(-6.5,-20.5)"
     id="circle142"
     style="fill:#000000;fill-opacity:0.4;stroke:#000000;stroke-width:1" />
  <circle
     cx="238"
     cy="112"
     r="5"
     transform="translate(-6.5,-20.5)"
     id="circle144"
     style="fill:#000000;fill-opacity:0.4;stroke:#000000;stroke-width:1" />
  <circle
     cx="28"
     cy="126"
     r="5"
     transform="translate(-6.5,-20.5)"
     id="circle146"
     style="fill:#000000;fill-opacity:0.4;stroke:#000000;stroke-width:1" />
  <circle
     cx="42"
     cy="126"
     r="5"
     transform="translate(-6.5,-20.5)"
     id="circle148"
     style="fill:#000000;fill-opacity:0.4;stroke:#000000;stroke-width:1" />
  <circle
     cx="70"
     cy="126"
     r="5"
     transform="translate(-6.5,-20.5)"
     id="circle150"
     style="fill:#000000;fill-opacity:0.4;stroke:#000000;stroke-width:1" />
  <circle
     cx="126"
     cy="126"
     r="5"
     transform="translate(-6.5,-20.5)"
     id="circle152"
     style="fill:#000000;fill-opacity:0.4;stroke:#000000;stroke-width:1" />
  <circle
     cx="140"
     cy="126"
     r="5"
     transform="translate(-6.5,-20.5)"
     id="circle154"
     style="fill:#000000;fill-opacity:0.4;stroke:#000000;stroke-width:1" />
  <circle
     cx="196"
     cy="126"
     r="5"
     transform="translate(-6.5,-20.5)"
     id="circle156"
     style="fill:#000000;fill-opacity:0.4;stroke:#000000;stroke-width:1" />
  <circle
     cx="210"
     cy="126"
     r="5"
     transform="translate(-6.5,-20.5)"
     id="circle158"
     style="fill:#000000;fill-opacity:0.4;stroke:#000000;stroke-width:1" />
  <circle
     cx="238"
     cy="126"
     r="5"
     transform="translate(-6.5,-20.5)"
     id="circle160"
     style="fill:#000000;fill-opacity:0.4;stroke:#000000;stroke-width:1" />
  <circle
     cx="14"
     cy="140"
     r="5"
     transform="translate(-6.5,-20.5)"
     id="circle162"
     style="fill:#000000;fill-opacity:0.4;stroke:#000000;stroke-width:1" />
  <circle
     cx="28"
     cy="140"
     r="5"
     transform="translate(-6.5,-20.5)"
     id="circle164"
     style="fill:#000000;fill-opacity:0.4;stroke:#000000;stroke-width:1" />
  <circle
     cx="42"
     cy="140"
     r="5"
     transform="translate(-6.5,-20.5)"
     id="circle166"
     style="fill:#000000;fill-opacity:0.4;stroke:#000000;stroke-width:1" />
  <circle
     cx="70"
     cy="140"
     r="5"
     transform="translate(-6.5,-20.5)"
     id="circle168"
     style="fill:#000000;fill-opacity:0.4;stroke:#000000;stroke-width:1" />
  <circle
     cx="84"
     cy="140"
     r="5"
     transform="translate(-6.5,-20.5)"
     id="circle170"
     style="fill:#000000;fill-opacity:0.4;stroke:#000000;stroke-width:1" />
  <circle
     cx="98"
     cy="140"
     r="5"
     transform="translate(-6.5,-20.5)"
     id="circle172"
     style="fill:#000000;fill-opacity:0.4;stroke:#000000;stroke-width:1" />
  <circle
     cx="126"
     cy="140"
     r="5"
     transform="translate(-6.5,-20.5)"
     id="circle174"
     style="fill:#000000;fill-opacity:0.4;stroke:#000000;stroke-width:1" />
  <circle
     cx="154"
     cy="140"
     r="5"
     transform="translate(-6.5,-20.5)"
     id="circle176"
     style="fill:#000000;fill-opacity:0.4;stroke:#000000;stroke-width:1" />
  <circle
     cx="168"
     cy="140"
     r="5"
     transform="translate(-6.5,-20.5)"
     id="circle178"
     style="fill:#000000;fill-opacity:0.4;stroke:#000000;stroke-width:1" />
  <circle
     cx="196"
     cy="140"
     r="5"
     transform="translate(-6.5,-20.5)"
     id="circle180"
     style="fill:#000000;fill-opacity:0.4;stroke:#000000;stroke-width:1" />
  <circle
     cx="224"
     cy="140"
     r="5"
     transform="translate(-6.5,-20.5)"
     id="circle182"
     style="fill:#000000;fill-opacity:0.4;stroke:#000000;stroke-width:1" />
  <circle
     cx="14"
     cy="154"
     r="5"
     transform="translate(-6.5,-20.5)"
     id="circle184"
     style="fill:#000000;fill-opacity:0.4;stroke:#000000;stroke-width:1" />
  <circle
     cx="28"
     cy="154"
     r="5"
     transform="translate(-6.5,-20.5)"
     id="circle186"
     style="fill:#000000;fill-opacity:0.4;stroke:#000000;stroke-width:1" />
  <circle
     cx="42"
     cy="154"
     r="5"
     transform="translate(-6.5,-20.5)"
     id="circle188"
     style="fill:#000000;fill-opacity:0.4;stroke:#000000;stroke-width:1" />
  <circle
     cx="56"
     cy="154"
     r="5"
     transform="translate(-6.5,-20.5)"
     id="circle190"
     style="fill:#000000;fill-opacity:0.4;stroke:#000000;stroke-width:1" />
  <circle
     cx="84"
     cy="154"
     r="5"
     transform="translate(-6.5,-20.5)"
     id="circle192"
     style="fill:#000000;fill-opacity:0.4;stroke:#000000;stroke-width:1" />
  <circle
     cx="98"
     cy="154"
     r="5"
     transform="translate(-6.5,-20.5)"
     id="circle194"
     style="fill:#000000;fill-opacity:0.4;stroke:#000000;stroke-width:1" />
  <circle
     cx="126"
     cy="154"
     r="5"
     transform="translate(-6.5,-20.5)"
     id="circle196"
     style="fill:#000000;fill-opacity:0.4;stroke:#000000;stroke-width:1" />
  <circle
     cx="196"
     cy="154"
     r="5"
     transform="translate(-6.5,-20.5)"
     id="circle198"
     style="fill:#000000;fill-opacity:0.4;stroke:#000000;stroke-width:1" />
  <circle
     cx="210"
     cy="154"
     r="5"
     transform="translate(-6.5,-20.5)"
     id="circle200"
     style="fill:#000000;fill-opacity:0.4;stroke:#000000;stroke-width:1" />
  <circle
     cx="14"
     cy="168"
     r="5"
     transform="translate(-6.5,-20.5)"
     id="circle202"
     style="fill:#000000;fill-opacity:0.4;stroke:#000000;stroke-width:1" />
  <circle
     cx="70"
     cy="168"
     r="5"
     transform="translate(-6.5,-20.5)"
     id="circle204"
     style="fill:#000000;fill-opacity:0.4;stroke:#000000;stroke-width:1" />
  <circle
     cx="112"
     cy="168"
     r="5"
     transform="translate(-6.5,-20.5)"
     id="circle206"
     style="fill:#000000;fill-opacity:0.4;stroke:#000000;stroke-width:1" />
  <circle
     cx="126"
     cy="168"
     r="5"
     transform="translate(-6.5,-20.5)"
     id="circle208"
     style="fill:#000000;fill-opacity:0.4;stroke:#000000;stroke-width:1" />
  <circle
     cx="154"
     cy="168"
     r="5"
     transform="translate(-6.5,-20.5)"
     id="circle210"
     style="fill:#000000;fill-opacity:0.4;stroke:#000000;stroke-width:1" />
  <circle
     cx="182"
     cy="168"
     r="5"
     transform="translate(-6.5,-20.5)"
     id="circle212"
     style="fill:#000000;fill-opacity:0.4;stroke:#000000;stroke-width:1" />
  <circle
     cx="196"
     cy="168"
     r="5"
     transform="translate(-6.5,-20.5)"
     id="circle214"
     style="fill:#000000;fill-opacity:0.4;stroke:#000000;stroke-width:1" />
  <circle
     cx="224"
     cy="168"
     r="5"
     transform="translate(-6.5,-20.5)"
     id="circle216"
     style="fill:#000000;fill-opacity:0.4;stroke:#000000;stroke-width:1" />
  <circle
     cx="14"
     cy="182"
     r="5"
     transform="translate(-6.5,-20.5)"
     id="circle218"
     style="fill:#000000;fill-opacity:0.4;stroke:#000000;stroke-width:1" />
  <circle
     cx="84"
     cy="182"
     r="5"
     transform="translate(-6.5,-20.5)"
     id="circle220"
     style="fill:#000000;fill-opacity:0.4;stroke:#000000;stroke-width:1" />
  <circle
     cx="98"
     cy="182"
     r="5"
     transform="translate(-6.5,-20.5)"
     id="circle222"
     style="fill:#000000;fill-opacity:0.4;stroke:#000000;stroke-width:1" />
  <circle
     cx="112"
     cy="182"
     r="5"
     transform="translate(-6.5,-20.5)"
     id="circle224"
     style="fill:#000000;fill-opacity:0.4;stroke:#000000;stroke-width:1" />
  <circle
     cx="126"
     cy="182"
     r="5"
     transform="translate(-6.5,-20.5)"
     id="circle226"
     style="fill:#000000;fill-opacity:0.4;stroke:#000000;stroke-width:1" />
  <circle
     cx="140"
     cy="182"
     r="5"
     transform="translate(-6.5,-20.5)"
     id="circle228"
     style="fill:#000000;fill-opacity:0.4;stroke:#000000;stroke-width:1" />
  <circle
     cx="168"
     cy="182"
     r="5"
     transform="translate(-6.5,-20.5)"
     id="circle230"
     style="fill:#000000;fill-opacity:0.4;stroke:#000000;stroke-width:1" />
  <circle
     cx="182"
     cy="182"
     r="5"
     transform="translate(-6.5,-20.5)"
     id="circle232"
     style="fill:#000000;fill-opacity:0.4;stroke:#000000;stroke-width:1" />
  <circle
     cx="210"
     cy="182"
     r="5"
     transform="translate(-6.5,-20.5)"
     id="circle234"
     style="fill:#000000;fill-opacity:0.4;stroke:#000000;stroke-width:1" />
  <circle
     cx="224"
     cy="182"
     r="5"
     transform="translate(-6.5,-20.5)"
     id="circle236"
     style="fill:#000000;fill-opacity:0.4;stroke:#000000;stroke-width:1" />
  <circle
     cx="238"
     cy="182"
     r="5"
     transform="translate(-6.5,-20.5)"
     id="circle238"
     style="fill:#000000;fill-opacity:0.4;stroke:#000000;stroke-width:1" />
  <circle
     cx="14"
     cy="196"
     r="5"
     transform="translate(-6.5,-20.5)"
     id="circle240"
     style="fill:#000000;fill-opacity:0.4;stroke:#000000;stroke-width:1" />
  <circle
     cx="28"
     cy="196"
     r="5"
     transform="translate(-6.5,-20.5)"
     id="circle242"
     style="fill:#000000;fill-opacity:0.4;stroke:#000000;stroke-width:1" />
  <circle
     cx="98"
     cy="196"
     r="5"
     transform="translate(-6.5,-20.5)"
     id="circle244"
     style="fill:#000000;fill-opacity:0.4;stroke:#000000;stroke-width:1" />
  <circle
     cx="126"
     cy="196"
     r="5"
     transform="translate(-6.5,-20.5)"
     id="circle246"
     style="fill:#000000;fill-opacity:0.4;stroke:#000000;stroke-width:1" />
  <circle
     cx="238"
     cy="196"
     r="5"
     transform="translate(-6.5,-20.5)"
     id="circle248"
     style="fill:#000000;fill-opacity:0.4;stroke:#000000;stroke-width:1" />
  <circle
     cx="14"
     cy="210"
     r="5"
     transform="translate(-6.5,-20.5)"
     id="circle250"
     style="fill:#000000;fill-opacity:0.4;stroke:#000000;stroke-width:1" />
  <circle
     cx="56"
     cy="210"
     r="5"
     transform="translate(-6.5,-20.5)"
     id="circle252"
     style="fill:#000000;fill-opacity:0.4;stroke:#000000;stroke-width:1" />
  <circle
     cx="70"
     cy="210"
     r="5"
     transform="translate(-6.5,-20.5)"
     id="circle254"
     style="fill:#000000;fill-opacity:0.4;stroke:#000000;stroke-width:1" />
  <circle
     cx="126"
     cy="210"
     r="5"
     transform="translate(-6.5,-20.5)"
     id="circle256"
     style="fill:#000000;fill-opacity:0.4;stroke:#000000;stroke-width:1" />
  <circle
     cx="140"
     cy="210"
     r="5"
     transform="translate(-6.5,-20.5)"
     id="circle258"
     style="fill:#000000;fill-opacity:0.4;stroke:#000000;stroke-width:1" />
  <circle
     cx="196"
     cy="210"
     r="5"
     transform="translate(-6.5,-20.5)"
     id="circle260"
     style="fill:#000000;fill-opacity:0.4;stroke:#000000;stroke-width:1" />
  <circle
     cx="210"
     cy="210"
     r="5"
     transform="translate(-6.5,-20.5)"
     id="circle262"
     style="fill:#000000;fill-opacity:0.4;stroke:#000000;stroke-width:1" />
  <circle
     cx="238"
     cy="210"
     r="5"
     transform="translate(-6.5,-20.5)"
     id="circle264"
     style="fill:#000000;fill-opacity:0.4;stroke:#000000;stroke-width:1" />
  <circle
     cx="14"
     cy="224"
     r="5"
     transform="translate(-6.5,-20.5)"
     id="circle266"
     style="fill:#000000;fill-opacity:0.4;stroke:#000000;stroke-width:1" />
  <circle
     cx="28"
     cy="224"
     r="5"
     transform="translate(-6.5,-20.5)"
     id="circle268"
     style="fill:#000000;fill-opacity:0.4;stroke:#000000;stroke-width:1" />
  <circle
     cx="42"
     cy="224"
     r="5"
     transform="translate(-6.5,-20.5)"
     id="circle270"
     style="fill:#000000;fill-opacity:0.4;stroke:#000000;stroke-width:1" />
  <circle
     cx="56"
     cy="224"
     r="5"
     transform="translate(-6.5,-20.5)"
     id="circle272"
     style="fill:#000000;fill-opacity:0.4;stroke:#000000;stroke-width:1" />
  <circle
     cx="70"
     cy="224"
     r="5"
     transform="translate(-6.5,-20.5)"
     id="circle274"
     style="fill:#000000;fill-opacity:0.4;stroke:#000000;stroke-width:1" />
  <circle
     cx="84"
     cy="224"
     r="5"
     transform="translate(-6.5,-20.5)"
     id="circle276"
     style="fill:#000000;fill-opacity:0.4;stroke:#000000;stroke-width:1" />
  <circle
     cx="98"
     cy="224"
     r="5"
     transform="translate(-6.5,-20.5)"
     id="circle278"
     style="fill:#000000;fill-opacity:0.4;stroke:#000000;stroke-width:1" />
  <circle
     cx="126"
     cy="224"
     r="5"
     transform="translate(-6.5,-20.5)"
     id="circle280"
     style="fill:#000000;fill-opacity:0.4;stroke:#000000;stroke-width:1" />
  <circle
     cx="140"
     cy="224"
     r="5"
     transform="translate(-6.5,-20.5)"
     id="circle282"
     style="fill:#000000;fill-opacity:0.4;stroke:#000000;stroke-width:1" />
  <circle
     cx="154"
     cy="224"
     r="5"
     transform="translate(-6.5,-20.5)"
     id="circle284"
     style="fill:#000000;fill-opacity:0.4;stroke:#000000;stroke-width:1" />
  <circle
     cx="168"
     cy="224"
     r="5"
     transform="translate(-6.5,-20.5)"
     id="circle286"
     style="fill:#000000;fill-opacity:0.4;stroke:#000000;stroke-width:1" />
  <circle
     cx="182"
     cy="224"
     r="5"
     transform="translate(-6.5,-20.5)"
     id="circle288"
     style="fill:#000000;fill-opacity:0.4;stroke:#000000;stroke-width:1" />
  <circle
     cx="196"
     cy="224"
     r="5"
     transform="translate(-6.5,-20.5)"
     id="circle290"
     style="fill:#000000;fill-opacity:0.4;stroke:#000000;stroke-width:1" />
  <circle
     cx="210"
     cy="224"
     r="5"
     transform="translate(-6.5,-20.5)"
     id="circle292"
     style="fill:#000000;fill-opacity:0.4;stroke:#000000;stroke-width:1" />
  <circle
     cx="224"
     cy="224"
     r="5"
     transform="translate(-6.5,-20.5)"
     id="circle294"
     style="fill:#000000;fill-opacity:0.4;stroke:#000000;stroke-width:1" />
  <circle
     cx="238"
     cy="224"
     r="5"
     transform="translate(-6.5,-20.5)"
     id="circle296"
     style="fill:#000000;fill-opacity:0.4;stroke:#000000;stroke-width:1" />
</svg>
