
<svg version="1.2" xmlns="http://www.w3.org/2000/svg" xmlns:xlink="http://www.w3.org/1999/xlink" x="0mm" y="0mm" width="640px" height="480px"><line x1="7" y1="21" x2="7" y2="427" stroke="blue" stroke-width="1"></line><line x1="21" y1="21" x2="21" y2="427" stroke="blue" stroke-width="1"></line><line x1="35" y1="21" x2="35" y2="427" stroke="blue" stroke-width="1"></line><line x1="49" y1="21" x2="49" y2="427" stroke="blue" stroke-width="1"></line><line x1="63" y1="21" x2="63" y2="427" stroke="blue" stroke-width="1"></line><line x1="77" y1="21" x2="77" y2="427" stroke="blue" stroke-width="1"></line><line x1="91" y1="21" x2="91" y2="427" stroke="blue" stroke-width="1"></line><line x1="105" y1="21" x2="105" y2="427" stroke="blue" stroke-width="1"></line><line x1="119" y1="21" x2="119" y2="427" stroke="blue" stroke-width="1"></line><line x1="133" y1="21" x2="133" y2="427" stroke="blue" stroke-width="1"></line><line x1="147" y1="21" x2="147" y2="427" stroke="blue" stroke-width="1"></line><line x1="161" y1="21" x2="161" y2="427" stroke="blue" stroke-width="1"></line><line x1="175" y1="21" x2="175" y2="427" stroke="blue" stroke-width="1"></line><line x1="189" y1="21" x2="189" y2="427" stroke="blue" stroke-width="1"></line><line x1="203" y1="21" x2="203" y2="427" stroke="blue" stroke-width="1"></line><line x1="217" y1="21" x2="217" y2="427" stroke="blue" stroke-width="1"></line><line x1="231" y1="21" x2="231" y2="427" stroke="blue" stroke-width="1"></line><line x1="245" y1="21" x2="245" y2="427" stroke="blue" stroke-width="1"></line><line x1="259" y1="21" x2="259" y2="427" stroke="blue" stroke-width="1"></line><line x1="273" y1="21" x2="273" y2="427" stroke="blue" stroke-width="1"></line><line x1="287" y1="21" x2="287" y2="427" stroke="blue" stroke-width="1"></line><line x1="301" y1="21" x2="301" y2="427" stroke="blue" stroke-width="1"></line><line x1="315" y1="21" x2="315" y2="427" stroke="blue" stroke-width="1"></line><line x1="329" y1="21" x2="329" y2="427" stroke="blue" stroke-width="1"></line><line x1="343" y1="21" x2="343" y2="427" stroke="blue" stroke-width="1"></line><line x1="357" y1="21" x2="357" y2="427" stroke="blue" stroke-width="1"></line><line x1="371" y1="21" x2="371" y2="427" stroke="blue" stroke-width="1"></line><line x1="385" y1="21" x2="385" y2="427" stroke="blue" stroke-width="1"></line><line x1="399" y1="21" x2="399" y2="427" stroke="blue" stroke-width="1"></line><line x1="413" y1="21" x2="413" y2="427" stroke="blue" stroke-width="1"></line><line x1="427" y1="21" x2="427" y2="427" stroke="blue" stroke-width="1"></line><line x1="441" y1="21" x2="441" y2="427" stroke="blue" stroke-width="1"></line><line x1="7" y1="21" x2="441" y2="21" stroke="blue" stroke-width="1"></line><line x1="7" y1="35" x2="441" y2="35" stroke="blue" stroke-width="1"></line><line x1="7" y1="49" x2="441" y2="49" stroke="blue" stroke-width="1"></line><line x1="7" y1="63" x2="441" y2="63" stroke="blue" stroke-width="1"></line><line x1="7" y1="77" x2="441" y2="77" stroke="blue" stroke-width="1"></line><line x1="7" y1="91" x2="441" y2="91" stroke="blue" stroke-width="1"></line><line x1="7" y1="105" x2="441" y2="105" stroke="blue" stroke-width="1"></line><line x1="7" y1="119" x2="441" y2="119" stroke="blue" stroke-width="1"></line><line x1="7" y1="133" x2="441" y2="133" stroke="blue" stroke-width="1"></line><line x1="7" y1="147" x2="441" y2="147" stroke="blue" stroke-width="1"></line><line x1="7" y1="161" x2="441" y2="161" stroke="blue" stroke-width="1"></line><line x1="7" y1="175" x2="441" y2="175" stroke="blue" stroke-width="1"></line><line x1="7" y1="189" x2="441" y2="189" stroke="blue" stroke-width="1"></line><line x1="7" y1="203" x2="441" y2="203" stroke="blue" stroke-width="1"></line><line x1="7" y1="217" x2="441" y2="217" stroke="blue" stroke-width="1"></line><line x1="7" y1="231" x2="441" y2="231" stroke="blue" stroke-width="1"></line><line x1="7" y1="245" x2="441" y2="245" stroke="blue" stroke-width="1"></line><line x1="7" y1="259" x2="441" y2="259" stroke="blue" stroke-width="1"></line><line x1="7" y1="273" x2="441" y2="273" stroke="blue" stroke-width="1"></line><line x1="7" y1="287" x2="441" y2="287" stroke="blue" stroke-width="1"></line><line x1="7" y1="301" x2="441" y2="301" stroke="blue" stroke-width="1"></line><line x1="7" y1="315" x2="441" y2="315" stroke="blue" stroke-width="1"></line><line x1="7" y1="329" x2="441" y2="329" stroke="blue" stroke-width="1"></line><line x1="7" y1="343" x2="441" y2="343" stroke="blue" stroke-width="1"></line><line x1="7" y1="357" x2="441" y2="357" stroke="blue" stroke-width="1"></line><line x1="7" y1="371" x2="441" y2="371" stroke="blue" stroke-width="1"></line><line x1="7" y1="385" x2="441" y2="385" stroke="blue" stroke-width="1"></line><line x1="7" y1="399" x2="441" y2="399" stroke="blue" stroke-width="1"></line><line x1="7" y1="413" x2="441" y2="413" stroke="blue" stroke-width="1"></line><line x1="7" y1="427" x2="441" y2="427" stroke="blue" stroke-width="1"></line><circle cx="392" cy="28" r="5" fill="black" fill-opacity="0.4" stroke="black" stroke-width="1"></circle><circle cx="406" cy="28" r="5" fill="black" fill-opacity="0.4" stroke="black" stroke-width="1"></circle><circle cx="420" cy="28" r="5" fill="black" fill-opacity="0.4" stroke="black" stroke-width="1"></circle><circle cx="336" cy="42" r="5" fill="black" fill-opacity="0.4" stroke="black" stroke-width="1"></circle><circle cx="350" cy="42" r="5" fill="black" fill-opacity="0.4" stroke="black" stroke-width="1"></circle><circle cx="420" cy="42" r="5" fill="black" fill-opacity="0.4" stroke="black" stroke-width="1"></circle><circle cx="224" cy="56" r="5" fill="black" fill-opacity="0.4" stroke="black" stroke-width="1"></circle><circle cx="266" cy="56" r="5" fill="black" fill-opacity="0.4" stroke="black" stroke-width="1"></circle><circle cx="308" cy="56" r="5" fill="black" fill-opacity="0.4" stroke="black" stroke-width="1"></circle><circle cx="322" cy="56" r="5" fill="black" fill-opacity="0.4" stroke="black" stroke-width="1"></circle><circle cx="420" cy="56" r="5" fill="black" fill-opacity="0.4" stroke="black" stroke-width="1"></circle><circle cx="14" cy="70" r="5" fill="black" fill-opacity="0.4" stroke="black" stroke-width="1"></circle><circle cx="42" cy="70" r="5" fill="black" fill-opacity="0.4" stroke="black" stroke-width="1"></circle><circle cx="70" cy="70" r="5" fill="black" fill-opacity="0.4" stroke="black" stroke-width="1"></circle><circle cx="126" cy="70" r="5" fill="black" fill-opacity="0.4" stroke="black" stroke-width="1"></circle><circle cx="140" cy="70" r="5" fill="black" fill-opacity="0.4" stroke="black" stroke-width="1"></circle><circle cx="168" cy="70" r="5" fill="black" fill-opacity="0.4" stroke="black" stroke-width="1"></circle><circle cx="196" cy="70" r="5" fill="black" fill-opacity="0.4" stroke="black" stroke-width="1"></circle><circle cx="210" cy="70" r="5" fill="black" fill-opacity="0.4" stroke="black" stroke-width="1"></circle><circle cx="238" cy="70" r="5" fill="black" fill-opacity="0.4" stroke="black" stroke-width="1"></circle><circle cx="280" cy="70" r="5" fill="black" fill-opacity="0.4" stroke="black" stroke-width="1"></circle><circle cx="294" cy="70" r="5" fill="black" fill-opacity="0.4" stroke="black" stroke-width="1"></circle><circle cx="420" cy="70" r="5" fill="black" fill-opacity="0.4" stroke="black" stroke-width="1"></circle><circle cx="28" cy="84" r="5" fill="black" fill-opacity="0.4" stroke="black" stroke-width="1"></circle><circle cx="70" cy="84" r="5" fill="black" fill-opacity="0.4" stroke="black" stroke-width="1"></circle><circle cx="84" cy="84" r="5" fill="black" fill-opacity="0.4" stroke="black" stroke-width="1"></circle><circle cx="98" cy="84" r="5" fill="black" fill-opacity="0.4" stroke="black" stroke-width="1"></circle><circle cx="112" cy="84" r="5" fill="black" fill-opacity="0.4" stroke="black" stroke-width="1"></circle><circle cx="126" cy="84" r="5" fill="black" fill-opacity="0.4" stroke="black" stroke-width="1"></circle><circle cx="140" cy="84" r="5" fill="black" fill-opacity="0.4" stroke="black" stroke-width="1"></circle><circle cx="168" cy="84" r="5" fill="black" fill-opacity="0.4" stroke="black" stroke-width="1"></circle><circle cx="196" cy="84" r="5" fill="black" fill-opacity="0.4" stroke="black" stroke-width="1"></circle><circle cx="238" cy="84" r="5" fill="black" fill-opacity="0.4" stroke="black" stroke-width="1"></circle><circle cx="266" cy="84" r="5" fill="black" fill-opacity="0.4" stroke="black" stroke-width="1"></circle><circle cx="280" cy="84" r="5" fill="black" fill-opacity="0.4" stroke="black" stroke-width="1"></circle><circle cx="294" cy="84" r="5" fill="black" fill-opacity="0.4" stroke="black" stroke-width="1"></circle><circle cx="322" cy="84" r="5" fill="black" fill-opacity="0.4" stroke="black" stroke-width="1"></circle><circle cx="336" cy="84" r="5" fill="black" fill-opacity="0.4" stroke="black" stroke-width="1"></circle><circle cx="364" cy="84" r="5" fill="black" fill-opacity="0.4" stroke="black" stroke-width="1"></circle><circle cx="378" cy="84" r="5" fill="black" fill-opacity="0.4" stroke="black" stroke-width="1"></circle><circle cx="406" cy="84" r="5" fill="black" fill-opacity="0.4" stroke="black" stroke-width="1"></circle><circle cx="420" cy="84" r="5" fill="black" fill-opacity="0.4" stroke="black" stroke-width="1"></circle><circle cx="14" cy="98" r="5" fill="black" fill-opacity="0.4" stroke="black" stroke-width="1"></circle><circle cx="28" cy="98" r="5" fill="black" fill-opacity="0.4" stroke="black" stroke-width="1"></circle><circle cx="42" cy="98" r="5" fill="black" fill-opacity="0.4" stroke="black" stroke-width="1"></circle><circle cx="84" cy="98" r="5" fill="black" fill-opacity="0.4" stroke="black" stroke-width="1"></circle><circle cx="98" cy="98" r="5" fill="black" fill-opacity="0.4" stroke="black" stroke-width="1"></circle><circle cx="126" cy="98" r="5" fill="black" fill-opacity="0.4" stroke="black" stroke-width="1"></circle><circle cx="140" cy="98" r="5" fill="black" fill-opacity="0.4" stroke="black" stroke-width="1"></circle><circle cx="154" cy="98" r="5" fill="black" fill-opacity="0.4" stroke="black" stroke-width="1"></circle><circle cx="168" cy="98" r="5" fill="black" fill-opacity="0.4" stroke="black" stroke-width="1"></circle><circle cx="252" cy="98" r="5" fill="black" fill-opacity="0.4" stroke="black" stroke-width="1"></circle><circle cx="266" cy="98" r="5" fill="black" fill-opacity="0.4" stroke="black" stroke-width="1"></circle><circle cx="280" cy="98" r="5" fill="black" fill-opacity="0.4" stroke="black" stroke-width="1"></circle><circle cx="308" cy="98" r="5" fill="black" fill-opacity="0.4" stroke="black" stroke-width="1"></circle><circle cx="322" cy="98" r="5" fill="black" fill-opacity="0.4" stroke="black" stroke-width="1"></circle><circle cx="336" cy="98" r="5" fill="black" fill-opacity="0.4" stroke="black" stroke-width="1"></circle><circle cx="378" cy="98" r="5" fill="black" fill-opacity="0.4" stroke="black" stroke-width="1"></circle><circle cx="392" cy="98" r="5" fill="black" fill-opacity="0.4" stroke="black" stroke-width="1"></circle><circle cx="420" cy="98" r="5" fill="black" fill-opacity="0.4" stroke="black" stroke-width="1"></circle><circle cx="434" cy="98" r="5" fill="black" fill-opacity="0.4" stroke="black" stroke-width="1"></circle><circle cx="42" cy="112" r="5" fill="black" fill-opacity="0.4" stroke="black" stroke-width="1"></circle><circle cx="56" cy="112" r="5" fill="black" fill-opacity="0.4" stroke="black" stroke-width="1"></circle><circle cx="98" cy="112" r="5" fill="black" fill-opacity="0.4" stroke="black" stroke-width="1"></circle><circle cx="126" cy="112" r="5" fill="black" fill-opacity="0.4" stroke="black" stroke-width="1"></circle><circle cx="154" cy="112" r="5" fill="black" fill-opacity="0.4" stroke="black" stroke-width="1"></circle><circle cx="168" cy="112" r="5" fill="black" fill-opacity="0.4" stroke="black" stroke-width="1"></circle><circle cx="196" cy="112" r="5" fill="black" fill-opacity="0.4" stroke="black" stroke-width="1"></circle><circle cx="210" cy="112" r="5" fill="black" fill-opacity="0.4" stroke="black" stroke-width="1"></circle><circle cx="238" cy="112" r="5" fill="black" fill-opacity="0.4" stroke="black" stroke-width="1"></circle><circle cx="280" cy="112" r="5" fill="black" fill-opacity="0.4" stroke="black" stroke-width="1"></circle><circle cx="308" cy="112" r="5" fill="black" fill-opacity="0.4" stroke="black" stroke-width="1"></circle><circle cx="322" cy="112" r="5" fill="black" fill-opacity="0.4" stroke="black" stroke-width="1"></circle><circle cx="336" cy="112" r="5" fill="black" fill-opacity="0.4" stroke="black" stroke-width="1"></circle><circle cx="350" cy="112" r="5" fill="black" fill-opacity="0.4" stroke="black" stroke-width="1"></circle><circle cx="364" cy="112" r="5" fill="black" fill-opacity="0.4" stroke="black" stroke-width="1"></circle><circle cx="420" cy="112" r="5" fill="black" fill-opacity="0.4" stroke="black" stroke-width="1"></circle><circle cx="28" cy="126" r="5" fill="black" fill-opacity="0.4" stroke="black" stroke-width="1"></circle><circle cx="42" cy="126" r="5" fill="black" fill-opacity="0.4" stroke="black" stroke-width="1"></circle><circle cx="84" cy="126" r="5" fill="black" fill-opacity="0.4" stroke="black" stroke-width="1"></circle><circle cx="140" cy="126" r="5" fill="black" fill-opacity="0.4" stroke="black" stroke-width="1"></circle><circle cx="154" cy="126" r="5" fill="black" fill-opacity="0.4" stroke="black" stroke-width="1"></circle><circle cx="266" cy="126" r="5" fill="black" fill-opacity="0.4" stroke="black" stroke-width="1"></circle><circle cx="280" cy="126" r="5" fill="black" fill-opacity="0.4" stroke="black" stroke-width="1"></circle><circle cx="294" cy="126" r="5" fill="black" fill-opacity="0.4" stroke="black" stroke-width="1"></circle><circle cx="308" cy="126" r="5" fill="black" fill-opacity="0.4" stroke="black" stroke-width="1"></circle><circle cx="350" cy="126" r="5" fill="black" fill-opacity="0.4" stroke="black" stroke-width="1"></circle><circle cx="406" cy="126" r="5" fill="black" fill-opacity="0.4" stroke="black" stroke-width="1"></circle><circle cx="112" cy="140" r="5" fill="black" fill-opacity="0.4" stroke="black" stroke-width="1"></circle><circle cx="126" cy="140" r="5" fill="black" fill-opacity="0.4" stroke="black" stroke-width="1"></circle><circle cx="210" cy="140" r="5" fill="black" fill-opacity="0.4" stroke="black" stroke-width="1"></circle><circle cx="224" cy="140" r="5" fill="black" fill-opacity="0.4" stroke="black" stroke-width="1"></circle><circle cx="252" cy="140" r="5" fill="black" fill-opacity="0.4" stroke="black" stroke-width="1"></circle><circle cx="280" cy="140" r="5" fill="black" fill-opacity="0.4" stroke="black" stroke-width="1"></circle><circle cx="308" cy="140" r="5" fill="black" fill-opacity="0.4" stroke="black" stroke-width="1"></circle><circle cx="322" cy="140" r="5" fill="black" fill-opacity="0.4" stroke="black" stroke-width="1"></circle><circle cx="336" cy="140" r="5" fill="black" fill-opacity="0.4" stroke="black" stroke-width="1"></circle><circle cx="350" cy="140" r="5" fill="black" fill-opacity="0.4" stroke="black" stroke-width="1"></circle><circle cx="392" cy="140" r="5" fill="black" fill-opacity="0.4" stroke="black" stroke-width="1"></circle><circle cx="420" cy="140" r="5" fill="black" fill-opacity="0.4" stroke="black" stroke-width="1"></circle><circle cx="14" cy="154" r="5" fill="black" fill-opacity="0.4" stroke="black" stroke-width="1"></circle><circle cx="28" cy="154" r="5" fill="black" fill-opacity="0.4" stroke="black" stroke-width="1"></circle><circle cx="42" cy="154" r="5" fill="black" fill-opacity="0.4" stroke="black" stroke-width="1"></circle><circle cx="56" cy="154" r="5" fill="black" fill-opacity="0.4" stroke="black" stroke-width="1"></circle><circle cx="98" cy="154" r="5" fill="black" fill-opacity="0.4" stroke="black" stroke-width="1"></circle><circle cx="112" cy="154" r="5" fill="black" fill-opacity="0.4" stroke="black" stroke-width="1"></circle><circle cx="126" cy="154" r="5" fill="black" fill-opacity="0.4" stroke="black" stroke-width="1"></circle><circle cx="154" cy="154" r="5" fill="black" fill-opacity="0.4" stroke="black" stroke-width="1"></circle><circle cx="168" cy="154" r="5" fill="black" fill-opacity="0.4" stroke="black" stroke-width="1"></circle><circle cx="182" cy="154" r="5" fill="black" fill-opacity="0.4" stroke="black" stroke-width="1"></circle><circle cx="224" cy="154" r="5" fill="black" fill-opacity="0.4" stroke="black" stroke-width="1"></circle><circle cx="252" cy="154" r="5" fill="black" fill-opacity="0.4" stroke="black" stroke-width="1"></circle><circle cx="350" cy="154" r="5" fill="black" fill-opacity="0.4" stroke="black" stroke-width="1"></circle><circle cx="364" cy="154" r="5" fill="black" fill-opacity="0.4" stroke="black" stroke-width="1"></circle><circle cx="392" cy="154" r="5" fill="black" fill-opacity="0.4" stroke="black" stroke-width="1"></circle><circle cx="420" cy="154" r="5" fill="black" fill-opacity="0.4" stroke="black" stroke-width="1"></circle><circle cx="14" cy="168" r="5" fill="black" fill-opacity="0.4" stroke="black" stroke-width="1"></circle><circle cx="84" cy="168" r="5" fill="black" fill-opacity="0.4" stroke="black" stroke-width="1"></circle><circle cx="112" cy="168" r="5" fill="black" fill-opacity="0.4" stroke="black" stroke-width="1"></circle><circle cx="140" cy="168" r="5" fill="black" fill-opacity="0.4" stroke="black" stroke-width="1"></circle><circle cx="154" cy="168" r="5" fill="black" fill-opacity="0.4" stroke="black" stroke-width="1"></circle><circle cx="168" cy="168" r="5" fill="black" fill-opacity="0.4" stroke="black" stroke-width="1"></circle><circle cx="210" cy="168" r="5" fill="black" fill-opacity="0.4" stroke="black" stroke-width="1"></circle><circle cx="238" cy="168" r="5" fill="black" fill-opacity="0.4" stroke="black" stroke-width="1"></circle><circle cx="294" cy="168" r="5" fill="black" fill-opacity="0.4" stroke="black" stroke-width="1"></circle><circle cx="308" cy="168" r="5" fill="black" fill-opacity="0.4" stroke="black" stroke-width="1"></circle><circle cx="322" cy="168" r="5" fill="black" fill-opacity="0.4" stroke="black" stroke-width="1"></circle><circle cx="350" cy="168" r="5" fill="black" fill-opacity="0.4" stroke="black" stroke-width="1"></circle><circle cx="364" cy="168" r="5" fill="black" fill-opacity="0.4" stroke="black" stroke-width="1"></circle><circle cx="378" cy="168" r="5" fill="black" fill-opacity="0.4" stroke="black" stroke-width="1"></circle><circle cx="420" cy="168" r="5" fill="black" fill-opacity="0.4" stroke="black" stroke-width="1"></circle><circle cx="434" cy="168" r="5" fill="black" fill-opacity="0.4" stroke="black" stroke-width="1"></circle><circle cx="14" cy="182" r="5" fill="black" fill-opacity="0.4" stroke="black" stroke-width="1"></circle><circle cx="70" cy="182" r="5" fill="black" fill-opacity="0.4" stroke="black" stroke-width="1"></circle><circle cx="84" cy="182" r="5" fill="black" fill-opacity="0.4" stroke="black" stroke-width="1"></circle><circle cx="112" cy="182" r="5" fill="black" fill-opacity="0.4" stroke="black" stroke-width="1"></circle><circle cx="126" cy="182" r="5" fill="black" fill-opacity="0.4" stroke="black" stroke-width="1"></circle><circle cx="140" cy="182" r="5" fill="black" fill-opacity="0.4" stroke="black" stroke-width="1"></circle><circle cx="168" cy="182" r="5" fill="black" fill-opacity="0.4" stroke="black" stroke-width="1"></circle><circle cx="182" cy="182" r="5" fill="black" fill-opacity="0.4" stroke="black" stroke-width="1"></circle><circle cx="196" cy="182" r="5" fill="black" fill-opacity="0.4" stroke="black" stroke-width="1"></circle><circle cx="210" cy="182" r="5" fill="black" fill-opacity="0.4" stroke="black" stroke-width="1"></circle><circle cx="266" cy="182" r="5" fill="black" fill-opacity="0.4" stroke="black" stroke-width="1"></circle><circle cx="280" cy="182" r="5" fill="black" fill-opacity="0.4" stroke="black" stroke-width="1"></circle><circle cx="308" cy="182" r="5" fill="black" fill-opacity="0.4" stroke="black" stroke-width="1"></circle><circle cx="322" cy="182" r="5" fill="black" fill-opacity="0.4" stroke="black" stroke-width="1"></circle><circle cx="336" cy="182" r="5" fill="black" fill-opacity="0.4" stroke="black" stroke-width="1"></circle><circle cx="406" cy="182" r="5" fill="black" fill-opacity="0.4" stroke="black" stroke-width="1"></circle><circle cx="420" cy="182" r="5" fill="black" fill-opacity="0.4" stroke="black" stroke-width="1"></circle><circle cx="14" cy="196" r="5" fill="black" fill-opacity="0.4" stroke="black" stroke-width="1"></circle><circle cx="42" cy="196" r="5" fill="black" fill-opacity="0.4" stroke="black" stroke-width="1"></circle><circle cx="70" cy="196" r="5" fill="black" fill-opacity="0.4" stroke="black" stroke-width="1"></circle><circle cx="84" cy="196" r="5" fill="black" fill-opacity="0.4" stroke="black" stroke-width="1"></circle><circle cx="126" cy="196" r="5" fill="black" fill-opacity="0.4" stroke="black" stroke-width="1"></circle><circle cx="140" cy="196" r="5" fill="black" fill-opacity="0.4" stroke="black" stroke-width="1"></circle><circle cx="154" cy="196" r="5" fill="black" fill-opacity="0.4" stroke="black" stroke-width="1"></circle><circle cx="168" cy="196" r="5" fill="black" fill-opacity="0.4" stroke="black" stroke-width="1"></circle><circle cx="224" cy="196" r="5" fill="black" fill-opacity="0.4" stroke="black" stroke-width="1"></circle><circle cx="238" cy="196" r="5" fill="black" fill-opacity="0.4" stroke="black" stroke-width="1"></circle><circle cx="280" cy="196" r="5" fill="black" fill-opacity="0.4" stroke="black" stroke-width="1"></circle><circle cx="294" cy="196" r="5" fill="black" fill-opacity="0.4" stroke="black" stroke-width="1"></circle><circle cx="308" cy="196" r="5" fill="black" fill-opacity="0.4" stroke="black" stroke-width="1"></circle><circle cx="336" cy="196" r="5" fill="black" fill-opacity="0.4" stroke="black" stroke-width="1"></circle><circle cx="350" cy="196" r="5" fill="black" fill-opacity="0.4" stroke="black" stroke-width="1"></circle><circle cx="364" cy="196" r="5" fill="black" fill-opacity="0.4" stroke="black" stroke-width="1"></circle><circle cx="406" cy="196" r="5" fill="black" fill-opacity="0.4" stroke="black" stroke-width="1"></circle><circle cx="434" cy="196" r="5" fill="black" fill-opacity="0.4" stroke="black" stroke-width="1"></circle><circle cx="28" cy="210" r="5" fill="black" fill-opacity="0.4" stroke="black" stroke-width="1"></circle><circle cx="42" cy="210" r="5" fill="black" fill-opacity="0.4" stroke="black" stroke-width="1"></circle><circle cx="70" cy="210" r="5" fill="black" fill-opacity="0.4" stroke="black" stroke-width="1"></circle><circle cx="126" cy="210" r="5" fill="black" fill-opacity="0.4" stroke="black" stroke-width="1"></circle><circle cx="154" cy="210" r="5" fill="black" fill-opacity="0.4" stroke="black" stroke-width="1"></circle><circle cx="252" cy="210" r="5" fill="black" fill-opacity="0.4" stroke="black" stroke-width="1"></circle><circle cx="336" cy="210" r="5" fill="black" fill-opacity="0.4" stroke="black" stroke-width="1"></circle><circle cx="350" cy="210" r="5" fill="black" fill-opacity="0.4" stroke="black" stroke-width="1"></circle><circle cx="364" cy="210" r="5" fill="black" fill-opacity="0.4" stroke="black" stroke-width="1"></circle><circle cx="28" cy="224" r="5" fill="black" fill-opacity="0.4" stroke="black" stroke-width="1"></circle><circle cx="70" cy="224" r="5" fill="black" fill-opacity="0.4" stroke="black" stroke-width="1"></circle><circle cx="98" cy="224" r="5" fill="black" fill-opacity="0.4" stroke="black" stroke-width="1"></circle><circle cx="112" cy="224" r="5" fill="black" fill-opacity="0.4" stroke="black" stroke-width="1"></circle><circle cx="154" cy="224" r="5" fill="black" fill-opacity="0.4" stroke="black" stroke-width="1"></circle><circle cx="168" cy="224" r="5" fill="black" fill-opacity="0.4" stroke="black" stroke-width="1"></circle><circle cx="196" cy="224" r="5" fill="black" fill-opacity="0.4" stroke="black" stroke-width="1"></circle><circle cx="266" cy="224" r="5" fill="black" fill-opacity="0.4" stroke="black" stroke-width="1"></circle><circle cx="336" cy="224" r="5" fill="black" fill-opacity="0.4" stroke="black" stroke-width="1"></circle><circle cx="350" cy="224" r="5" fill="black" fill-opacity="0.4" stroke="black" stroke-width="1"></circle><circle cx="378" cy="224" r="5" fill="black" fill-opacity="0.4" stroke="black" stroke-width="1"></circle><circle cx="392" cy="224" r="5" fill="black" fill-opacity="0.4" stroke="black" stroke-width="1"></circle><circle cx="406" cy="224" r="5" fill="black" fill-opacity="0.4" stroke="black" stroke-width="1"></circle><circle cx="434" cy="224" r="5" fill="black" fill-opacity="0.4" stroke="black" stroke-width="1"></circle><circle cx="28" cy="238" r="5" fill="black" fill-opacity="0.4" stroke="black" stroke-width="1"></circle><circle cx="42" cy="238" r="5" fill="black" fill-opacity="0.4" stroke="black" stroke-width="1"></circle><circle cx="56" cy="238" r="5" fill="black" fill-opacity="0.4" stroke="black" stroke-width="1"></circle><circle cx="168" cy="238" r="5" fill="black" fill-opacity="0.4" stroke="black" stroke-width="1"></circle><circle cx="182" cy="238" r="5" fill="black" fill-opacity="0.4" stroke="black" stroke-width="1"></circle><circle cx="252" cy="238" r="5" fill="black" fill-opacity="0.4" stroke="black" stroke-width="1"></circle><circle cx="280" cy="238" r="5" fill="black" fill-opacity="0.4" stroke="black" stroke-width="1"></circle><circle cx="322" cy="238" r="5" fill="black" fill-opacity="0.4" stroke="black" stroke-width="1"></circle><circle cx="336" cy="238" r="5" fill="black" fill-opacity="0.4" stroke="black" stroke-width="1"></circle><circle cx="350" cy="238" r="5" fill="black" fill-opacity="0.4" stroke="black" stroke-width="1"></circle><circle cx="364" cy="238" r="5" fill="black" fill-opacity="0.4" stroke="black" stroke-width="1"></circle><circle cx="378" cy="238" r="5" fill="black" fill-opacity="0.4" stroke="black" stroke-width="1"></circle><circle cx="406" cy="238" r="5" fill="black" fill-opacity="0.4" stroke="black" stroke-width="1"></circle><circle cx="420" cy="238" r="5" fill="black" fill-opacity="0.4" stroke="black" stroke-width="1"></circle><circle cx="434" cy="238" r="5" fill="black" fill-opacity="0.4" stroke="black" stroke-width="1"></circle><circle cx="42" cy="252" r="5" fill="black" fill-opacity="0.4" stroke="black" stroke-width="1"></circle><circle cx="56" cy="252" r="5" fill="black" fill-opacity="0.4" stroke="black" stroke-width="1"></circle><circle cx="70" cy="252" r="5" fill="black" fill-opacity="0.4" stroke="black" stroke-width="1"></circle><circle cx="84" cy="252" r="5" fill="black" fill-opacity="0.4" stroke="black" stroke-width="1"></circle><circle cx="112" cy="252" r="5" fill="black" fill-opacity="0.4" stroke="black" stroke-width="1"></circle><circle cx="154" cy="252" r="5" fill="black" fill-opacity="0.4" stroke="black" stroke-width="1"></circle><circle cx="196" cy="252" r="5" fill="black" fill-opacity="0.4" stroke="black" stroke-width="1"></circle><circle cx="210" cy="252" r="5" fill="black" fill-opacity="0.4" stroke="black" stroke-width="1"></circle><circle cx="224" cy="252" r="5" fill="black" fill-opacity="0.4" stroke="black" stroke-width="1"></circle><circle cx="252" cy="252" r="5" fill="black" fill-opacity="0.4" stroke="black" stroke-width="1"></circle><circle cx="266" cy="252" r="5" fill="black" fill-opacity="0.4" stroke="black" stroke-width="1"></circle><circle cx="308" cy="252" r="5" fill="black" fill-opacity="0.4" stroke="black" stroke-width="1"></circle><circle cx="364" cy="252" r="5" fill="black" fill-opacity="0.4" stroke="black" stroke-width="1"></circle><circle cx="392" cy="252" r="5" fill="black" fill-opacity="0.4" stroke="black" stroke-width="1"></circle><circle cx="406" cy="252" r="5" fill="black" fill-opacity="0.4" stroke="black" stroke-width="1"></circle><circle cx="420" cy="252" r="5" fill="black" fill-opacity="0.4" stroke="black" stroke-width="1"></circle><circle cx="434" cy="252" r="5" fill="black" fill-opacity="0.4" stroke="black" stroke-width="1"></circle><circle cx="28" cy="266" r="5" fill="black" fill-opacity="0.4" stroke="black" stroke-width="1"></circle><circle cx="56" cy="266" r="5" fill="black" fill-opacity="0.4" stroke="black" stroke-width="1"></circle><circle cx="98" cy="266" r="5" fill="black" fill-opacity="0.4" stroke="black" stroke-width="1"></circle><circle cx="126" cy="266" r="5" fill="black" fill-opacity="0.4" stroke="black" stroke-width="1"></circle><circle cx="168" cy="266" r="5" fill="black" fill-opacity="0.4" stroke="black" stroke-width="1"></circle><circle cx="182" cy="266" r="5" fill="black" fill-opacity="0.4" stroke="black" stroke-width="1"></circle><circle cx="210" cy="266" r="5" fill="black" fill-opacity="0.4" stroke="black" stroke-width="1"></circle><circle cx="238" cy="266" r="5" fill="black" fill-opacity="0.4" stroke="black" stroke-width="1"></circle><circle cx="280" cy="266" r="5" fill="black" fill-opacity="0.4" stroke="black" stroke-width="1"></circle><circle cx="308" cy="266" r="5" fill="black" fill-opacity="0.4" stroke="black" stroke-width="1"></circle><circle cx="336" cy="266" r="5" fill="black" fill-opacity="0.4" stroke="black" stroke-width="1"></circle><circle cx="378" cy="266" r="5" fill="black" fill-opacity="0.4" stroke="black" stroke-width="1"></circle><circle cx="434" cy="266" r="5" fill="black" fill-opacity="0.4" stroke="black" stroke-width="1"></circle><circle cx="14" cy="280" r="5" fill="black" fill-opacity="0.4" stroke="black" stroke-width="1"></circle><circle cx="28" cy="280" r="5" fill="black" fill-opacity="0.4" stroke="black" stroke-width="1"></circle><circle cx="42" cy="280" r="5" fill="black" fill-opacity="0.4" stroke="black" stroke-width="1"></circle><circle cx="126" cy="280" r="5" fill="black" fill-opacity="0.4" stroke="black" stroke-width="1"></circle><circle cx="182" cy="280" r="5" fill="black" fill-opacity="0.4" stroke="black" stroke-width="1"></circle><circle cx="210" cy="280" r="5" fill="black" fill-opacity="0.4" stroke="black" stroke-width="1"></circle><circle cx="224" cy="280" r="5" fill="black" fill-opacity="0.4" stroke="black" stroke-width="1"></circle><circle cx="238" cy="280" r="5" fill="black" fill-opacity="0.4" stroke="black" stroke-width="1"></circle><circle cx="266" cy="280" r="5" fill="black" fill-opacity="0.4" stroke="black" stroke-width="1"></circle><circle cx="280" cy="280" r="5" fill="black" fill-opacity="0.4" stroke="black" stroke-width="1"></circle><circle cx="336" cy="280" r="5" fill="black" fill-opacity="0.4" stroke="black" stroke-width="1"></circle><circle cx="392" cy="280" r="5" fill="black" fill-opacity="0.4" stroke="black" stroke-width="1"></circle><circle cx="406" cy="280" r="5" fill="black" fill-opacity="0.4" stroke="black" stroke-width="1"></circle><circle cx="420" cy="280" r="5" fill="black" fill-opacity="0.4" stroke="black" stroke-width="1"></circle><circle cx="434" cy="280" r="5" fill="black" fill-opacity="0.4" stroke="black" stroke-width="1"></circle><circle cx="14" cy="294" r="5" fill="black" fill-opacity="0.4" stroke="black" stroke-width="1"></circle><circle cx="28" cy="294" r="5" fill="black" fill-opacity="0.4" stroke="black" stroke-width="1"></circle><circle cx="42" cy="294" r="5" fill="black" fill-opacity="0.4" stroke="black" stroke-width="1"></circle><circle cx="70" cy="294" r="5" fill="black" fill-opacity="0.4" stroke="black" stroke-width="1"></circle><circle cx="84" cy="294" r="5" fill="black" fill-opacity="0.4" stroke="black" stroke-width="1"></circle><circle cx="112" cy="294" r="5" fill="black" fill-opacity="0.4" stroke="black" stroke-width="1"></circle><circle cx="126" cy="294" r="5" fill="black" fill-opacity="0.4" stroke="black" stroke-width="1"></circle><circle cx="196" cy="294" r="5" fill="black" fill-opacity="0.4" stroke="black" stroke-width="1"></circle><circle cx="336" cy="294" r="5" fill="black" fill-opacity="0.4" stroke="black" stroke-width="1"></circle><circle cx="350" cy="294" r="5" fill="black" fill-opacity="0.4" stroke="black" stroke-width="1"></circle><circle cx="364" cy="294" r="5" fill="black" fill-opacity="0.4" stroke="black" stroke-width="1"></circle><circle cx="378" cy="294" r="5" fill="black" fill-opacity="0.4" stroke="black" stroke-width="1"></circle><circle cx="406" cy="294" r="5" fill="black" fill-opacity="0.4" stroke="black" stroke-width="1"></circle><circle cx="420" cy="294" r="5" fill="black" fill-opacity="0.4" stroke="black" stroke-width="1"></circle><circle cx="28" cy="308" r="5" fill="black" fill-opacity="0.4" stroke="black" stroke-width="1"></circle><circle cx="56" cy="308" r="5" fill="black" fill-opacity="0.4" stroke="black" stroke-width="1"></circle><circle cx="84" cy="308" r="5" fill="black" fill-opacity="0.4" stroke="black" stroke-width="1"></circle><circle cx="98" cy="308" r="5" fill="black" fill-opacity="0.4" stroke="black" stroke-width="1"></circle><circle cx="182" cy="308" r="5" fill="black" fill-opacity="0.4" stroke="black" stroke-width="1"></circle><circle cx="196" cy="308" r="5" fill="black" fill-opacity="0.4" stroke="black" stroke-width="1"></circle><circle cx="210" cy="308" r="5" fill="black" fill-opacity="0.4" stroke="black" stroke-width="1"></circle><circle cx="224" cy="308" r="5" fill="black" fill-opacity="0.4" stroke="black" stroke-width="1"></circle><circle cx="238" cy="308" r="5" fill="black" fill-opacity="0.4" stroke="black" stroke-width="1"></circle><circle cx="294" cy="308" r="5" fill="black" fill-opacity="0.4" stroke="black" stroke-width="1"></circle><circle cx="364" cy="308" r="5" fill="black" fill-opacity="0.4" stroke="black" stroke-width="1"></circle><circle cx="378" cy="308" r="5" fill="black" fill-opacity="0.4" stroke="black" stroke-width="1"></circle><circle cx="420" cy="308" r="5" fill="black" fill-opacity="0.4" stroke="black" stroke-width="1"></circle><circle cx="434" cy="308" r="5" fill="black" fill-opacity="0.4" stroke="black" stroke-width="1"></circle><circle cx="98" cy="322" r="5" fill="black" fill-opacity="0.4" stroke="black" stroke-width="1"></circle><circle cx="112" cy="322" r="5" fill="black" fill-opacity="0.4" stroke="black" stroke-width="1"></circle><circle cx="154" cy="322" r="5" fill="black" fill-opacity="0.4" stroke="black" stroke-width="1"></circle><circle cx="168" cy="322" r="5" fill="black" fill-opacity="0.4" stroke="black" stroke-width="1"></circle><circle cx="182" cy="322" r="5" fill="black" fill-opacity="0.4" stroke="black" stroke-width="1"></circle><circle cx="196" cy="322" r="5" fill="black" fill-opacity="0.4" stroke="black" stroke-width="1"></circle><circle cx="210" cy="322" r="5" fill="black" fill-opacity="0.4" stroke="black" stroke-width="1"></circle><circle cx="238" cy="322" r="5" fill="black" fill-opacity="0.4" stroke="black" stroke-width="1"></circle><circle cx="266" cy="322" r="5" fill="black" fill-opacity="0.4" stroke="black" stroke-width="1"></circle><circle cx="280" cy="322" r="5" fill="black" fill-opacity="0.4" stroke="black" stroke-width="1"></circle><circle cx="308" cy="322" r="5" fill="black" fill-opacity="0.4" stroke="black" stroke-width="1"></circle><circle cx="350" cy="322" r="5" fill="black" fill-opacity="0.4" stroke="black" stroke-width="1"></circle><circle cx="364" cy="322" r="5" fill="black" fill-opacity="0.4" stroke="black" stroke-width="1"></circle><circle cx="378" cy="322" r="5" fill="black" fill-opacity="0.4" stroke="black" stroke-width="1"></circle><circle cx="420" cy="322" r="5" fill="black" fill-opacity="0.4" stroke="black" stroke-width="1"></circle><circle cx="14" cy="336" r="5" fill="black" fill-opacity="0.4" stroke="black" stroke-width="1"></circle><circle cx="42" cy="336" r="5" fill="black" fill-opacity="0.4" stroke="black" stroke-width="1"></circle><circle cx="56" cy="336" r="5" fill="black" fill-opacity="0.4" stroke="black" stroke-width="1"></circle><circle cx="70" cy="336" r="5" fill="black" fill-opacity="0.4" stroke="black" stroke-width="1"></circle><circle cx="98" cy="336" r="5" fill="black" fill-opacity="0.4" stroke="black" stroke-width="1"></circle><circle cx="112" cy="336" r="5" fill="black" fill-opacity="0.4" stroke="black" stroke-width="1"></circle><circle cx="154" cy="336" r="5" fill="black" fill-opacity="0.4" stroke="black" stroke-width="1"></circle><circle cx="182" cy="336" r="5" fill="black" fill-opacity="0.4" stroke="black" stroke-width="1"></circle><circle cx="210" cy="336" r="5" fill="black" fill-opacity="0.4" stroke="black" stroke-width="1"></circle><circle cx="224" cy="336" r="5" fill="black" fill-opacity="0.4" stroke="black" stroke-width="1"></circle><circle cx="266" cy="336" r="5" fill="black" fill-opacity="0.4" stroke="black" stroke-width="1"></circle><circle cx="280" cy="336" r="5" fill="black" fill-opacity="0.4" stroke="black" stroke-width="1"></circle><circle cx="294" cy="336" r="5" fill="black" fill-opacity="0.4" stroke="black" stroke-width="1"></circle><circle cx="308" cy="336" r="5" fill="black" fill-opacity="0.4" stroke="black" stroke-width="1"></circle><circle cx="336" cy="336" r="5" fill="black" fill-opacity="0.4" stroke="black" stroke-width="1"></circle><circle cx="392" cy="336" r="5" fill="black" fill-opacity="0.4" stroke="black" stroke-width="1"></circle><circle cx="406" cy="336" r="5" fill="black" fill-opacity="0.4" stroke="black" stroke-width="1"></circle><circle cx="420" cy="336" r="5" fill="black" fill-opacity="0.4" stroke="black" stroke-width="1"></circle><circle cx="14" cy="350" r="5" fill="black" fill-opacity="0.4" stroke="black" stroke-width="1"></circle><circle cx="28" cy="350" r="5" fill="black" fill-opacity="0.4" stroke="black" stroke-width="1"></circle><circle cx="84" cy="350" r="5" fill="black" fill-opacity="0.4" stroke="black" stroke-width="1"></circle><circle cx="98" cy="350" r="5" fill="black" fill-opacity="0.4" stroke="black" stroke-width="1"></circle><circle cx="112" cy="350" r="5" fill="black" fill-opacity="0.4" stroke="black" stroke-width="1"></circle><circle cx="126" cy="350" r="5" fill="black" fill-opacity="0.4" stroke="black" stroke-width="1"></circle><circle cx="140" cy="350" r="5" fill="black" fill-opacity="0.4" stroke="black" stroke-width="1"></circle><circle cx="168" cy="350" r="5" fill="black" fill-opacity="0.4" stroke="black" stroke-width="1"></circle><circle cx="196" cy="350" r="5" fill="black" fill-opacity="0.4" stroke="black" stroke-width="1"></circle><circle cx="210" cy="350" r="5" fill="black" fill-opacity="0.4" stroke="black" stroke-width="1"></circle><circle cx="224" cy="350" r="5" fill="black" fill-opacity="0.4" stroke="black" stroke-width="1"></circle><circle cx="252" cy="350" r="5" fill="black" fill-opacity="0.4" stroke="black" stroke-width="1"></circle><circle cx="266" cy="350" r="5" fill="black" fill-opacity="0.4" stroke="black" stroke-width="1"></circle><circle cx="392" cy="350" r="5" fill="black" fill-opacity="0.4" stroke="black" stroke-width="1"></circle><circle cx="406" cy="350" r="5" fill="black" fill-opacity="0.4" stroke="black" stroke-width="1"></circle><circle cx="14" cy="364" r="5" fill="black" fill-opacity="0.4" stroke="black" stroke-width="1"></circle><circle cx="70" cy="364" r="5" fill="black" fill-opacity="0.4" stroke="black" stroke-width="1"></circle><circle cx="98" cy="364" r="5" fill="black" fill-opacity="0.4" stroke="black" stroke-width="1"></circle><circle cx="154" cy="364" r="5" fill="black" fill-opacity="0.4" stroke="black" stroke-width="1"></circle><circle cx="168" cy="364" r="5" fill="black" fill-opacity="0.4" stroke="black" stroke-width="1"></circle><circle cx="224" cy="364" r="5" fill="black" fill-opacity="0.4" stroke="black" stroke-width="1"></circle><circle cx="238" cy="364" r="5" fill="black" fill-opacity="0.4" stroke="black" stroke-width="1"></circle><circle cx="294" cy="364" r="5" fill="black" fill-opacity="0.4" stroke="black" stroke-width="1"></circle><circle cx="308" cy="364" r="5" fill="black" fill-opacity="0.4" stroke="black" stroke-width="1"></circle><circle cx="336" cy="364" r="5" fill="black" fill-opacity="0.4" stroke="black" stroke-width="1"></circle><circle cx="350" cy="364" r="5" fill="black" fill-opacity="0.4" stroke="black" stroke-width="1"></circle><circle cx="378" cy="364" r="5" fill="black" fill-opacity="0.4" stroke="black" stroke-width="1"></circle><circle cx="392" cy="364" r="5" fill="black" fill-opacity="0.4" stroke="black" stroke-width="1"></circle><circle cx="420" cy="364" r="5" fill="black" fill-opacity="0.4" stroke="black" stroke-width="1"></circle><circle cx="56" cy="378" r="5" fill="black" fill-opacity="0.4" stroke="black" stroke-width="1"></circle><circle cx="70" cy="378" r="5" fill="black" fill-opacity="0.4" stroke="black" stroke-width="1"></circle><circle cx="112" cy="378" r="5" fill="black" fill-opacity="0.4" stroke="black" stroke-width="1"></circle><circle cx="140" cy="378" r="5" fill="black" fill-opacity="0.4" stroke="black" stroke-width="1"></circle><circle cx="196" cy="378" r="5" fill="black" fill-opacity="0.4" stroke="black" stroke-width="1"></circle><circle cx="224" cy="378" r="5" fill="black" fill-opacity="0.4" stroke="black" stroke-width="1"></circle><circle cx="252" cy="378" r="5" fill="black" fill-opacity="0.4" stroke="black" stroke-width="1"></circle><circle cx="280" cy="378" r="5" fill="black" fill-opacity="0.4" stroke="black" stroke-width="1"></circle><circle cx="294" cy="378" r="5" fill="black" fill-opacity="0.4" stroke="black" stroke-width="1"></circle><circle cx="336" cy="378" r="5" fill="black" fill-opacity="0.4" stroke="black" stroke-width="1"></circle><circle cx="350" cy="378" r="5" fill="black" fill-opacity="0.4" stroke="black" stroke-width="1"></circle><circle cx="378" cy="378" r="5" fill="black" fill-opacity="0.4" stroke="black" stroke-width="1"></circle><circle cx="434" cy="378" r="5" fill="black" fill-opacity="0.4" stroke="black" stroke-width="1"></circle><circle cx="14" cy="392" r="5" fill="black" fill-opacity="0.4" stroke="black" stroke-width="1"></circle><circle cx="70" cy="392" r="5" fill="black" fill-opacity="0.4" stroke="black" stroke-width="1"></circle><circle cx="84" cy="392" r="5" fill="black" fill-opacity="0.4" stroke="black" stroke-width="1"></circle><circle cx="126" cy="392" r="5" fill="black" fill-opacity="0.4" stroke="black" stroke-width="1"></circle><circle cx="140" cy="392" r="5" fill="black" fill-opacity="0.4" stroke="black" stroke-width="1"></circle><circle cx="168" cy="392" r="5" fill="black" fill-opacity="0.4" stroke="black" stroke-width="1"></circle><circle cx="182" cy="392" r="5" fill="black" fill-opacity="0.4" stroke="black" stroke-width="1"></circle><circle cx="224" cy="392" r="5" fill="black" fill-opacity="0.4" stroke="black" stroke-width="1"></circle><circle cx="238" cy="392" r="5" fill="black" fill-opacity="0.4" stroke="black" stroke-width="1"></circle><circle cx="266" cy="392" r="5" fill="black" fill-opacity="0.4" stroke="black" stroke-width="1"></circle><circle cx="322" cy="392" r="5" fill="black" fill-opacity="0.4" stroke="black" stroke-width="1"></circle><circle cx="336" cy="392" r="5" fill="black" fill-opacity="0.4" stroke="black" stroke-width="1"></circle><circle cx="350" cy="392" r="5" fill="black" fill-opacity="0.4" stroke="black" stroke-width="1"></circle><circle cx="406" cy="392" r="5" fill="black" fill-opacity="0.4" stroke="black" stroke-width="1"></circle><circle cx="210" cy="406" r="5" fill="black" fill-opacity="0.4" stroke="black" stroke-width="1"></circle></svg>
